<svg width="260" height="80" viewBox="0 0 260 80" fill="none" xmlns="http://www.w3.org/2000/svg">
<path d="M40 67.5C55.1878 67.5 67.5 55.1878 67.5 40C67.5 24.8122 55.1878 12.5 40 12.5C24.8122 12.5 12.5 24.8122 12.5 40C12.5 55.1878 24.8122 67.5 40 67.5Z" stroke="white" stroke-width="5" stroke-linecap="round" stroke-linejoin="round"/>
<path d="M40 12.5C55.2 12.5 65 24.8 65 40C65 55.2 55.2 67.5 40 67.5" stroke="white" stroke-width="5" stroke-linecap="round" stroke-linejoin="round"/>
<path d="M46.4751 46.475L28.2251 51.775L33.5251 33.525L51.7751 28.225L46.4751 46.475Z" stroke="white" stroke-width="2.5" stroke-linecap="round" stroke-linejoin="round"/>
<path d="M40 42.5C41.3807 42.5 42.5 41.3807 42.5 40C42.5 38.6193 41.3807 37.5 40 37.5C38.6193 37.5 37.5 38.6193 37.5 40C37.5 41.3807 38.6193 42.5 40 42.5Z" fill="white"/>
<path d="M104.766 50H101.133V35.8906H96.4805V32.8672H109.418V35.8906H104.766V50ZM128.085 41.4102C128.085 42.7305 127.921 43.9336 127.593 45.0195C127.265 46.0977 126.765 47.0273 126.093 47.8086C125.429 48.5898 124.585 49.1914 123.562 49.6133C122.539 50.0273 121.328 50.2344 119.929 50.2344C118.531 50.2344 117.32 50.0273 116.296 49.6133C115.273 49.1914 114.425 48.5898 113.753 47.8086C113.089 47.0273 112.593 46.0938 112.265 45.0078C111.937 43.9219 111.773 42.7148 111.773 41.3867C111.773 39.6133 112.062 38.0703 112.64 36.7578C113.226 35.4375 114.125 34.4141 115.335 33.6875C116.546 32.9609 118.085 32.5977 119.953 32.5977C121.812 32.5977 123.339 32.9609 124.535 33.6875C125.738 34.4141 126.628 35.4375 127.207 36.7578C127.792 38.0781 128.085 39.6289 128.085 41.4102ZM115.582 41.4102C115.582 42.6055 115.73 43.6367 116.027 44.5039C116.332 45.3633 116.804 46.0273 117.445 46.4961C118.085 46.957 118.914 47.1875 119.929 47.1875C120.96 47.1875 121.796 46.957 122.437 46.4961C123.078 46.0273 123.542 45.3633 123.832 44.5039C124.128 43.6367 124.277 42.6055 124.277 41.4102C124.277 39.6133 123.941 38.1992 123.269 37.168C122.597 36.1367 121.492 35.6211 119.953 35.6211C118.929 35.6211 118.093 35.8555 117.445 36.3242C116.804 36.7852 116.332 37.4492 116.027 38.3164C115.73 39.1758 115.582 40.207 115.582 41.4102ZM146.062 32.8672V43.9531C146.062 45.1328 145.8 46.1992 145.276 47.1523C144.761 48.0977 143.976 48.8477 142.921 49.4023C141.874 49.957 140.554 50.2344 138.96 50.2344C136.694 50.2344 134.968 49.6562 133.78 48.5C132.593 47.3438 131.999 45.8125 131.999 43.9062V32.8672H135.62V43.3555C135.62 44.7695 135.909 45.7617 136.487 46.332C137.065 46.9023 137.921 47.1875 139.054 47.1875C139.851 47.1875 140.495 47.0508 140.987 46.7773C141.487 46.5039 141.855 46.082 142.089 45.5117C142.323 44.9414 142.44 44.2148 142.44 43.332V32.8672H146.062ZM155.729 32.8672C157.284 32.8672 158.565 33.0547 159.573 33.4297C160.588 33.8047 161.342 34.3711 161.835 35.1289C162.327 35.8867 162.573 36.8438 162.573 38C162.573 38.7812 162.424 39.4648 162.127 40.0508C161.831 40.6367 161.44 41.1328 160.956 41.5391C160.471 41.9453 159.948 42.2773 159.385 42.5352L164.424 50H160.393L156.303 43.4258H154.37V50H150.737V32.8672H155.729ZM155.471 35.8438H154.37V40.4727H155.542C156.745 40.4727 157.604 40.2734 158.12 39.875C158.643 39.4688 158.905 38.875 158.905 38.0938C158.905 37.2812 158.624 36.7031 158.061 36.3594C157.506 36.0156 156.643 35.8438 155.471 35.8438ZM180.279 40.3789H187.076V49.2617C186.177 49.5586 185.244 49.7969 184.275 49.9766C183.306 50.1484 182.209 50.2344 180.982 50.2344C179.279 50.2344 177.834 49.8984 176.646 49.2266C175.459 48.5547 174.556 47.5625 173.939 46.25C173.322 44.9375 173.013 43.3242 173.013 41.4102C173.013 39.6133 173.357 38.0586 174.045 36.7461C174.74 35.4336 175.752 34.418 177.08 33.6992C178.416 32.9805 180.045 32.6211 181.966 32.6211C182.873 32.6211 183.767 32.7188 184.65 32.9141C185.533 33.1094 186.334 33.3633 187.052 33.6758L185.845 36.582C185.322 36.3164 184.724 36.0938 184.052 35.9141C183.38 35.7344 182.677 35.6445 181.943 35.6445C180.888 35.6445 179.97 35.8867 179.189 36.3711C178.416 36.8555 177.814 37.5352 177.384 38.4102C176.963 39.2773 176.752 40.3008 176.752 41.4805C176.752 42.5977 176.904 43.5898 177.209 44.457C177.513 45.3164 177.994 45.9922 178.65 46.4844C179.306 46.9688 180.162 47.2109 181.216 47.2109C181.732 47.2109 182.166 47.1875 182.517 47.1406C182.877 47.0859 183.213 47.0312 183.525 46.9766V43.4023H180.279V40.3789ZM205.591 32.8672V43.9531C205.591 45.1328 205.329 46.1992 204.806 47.1523C204.29 48.0977 203.505 48.8477 202.45 49.4023C201.403 49.957 200.083 50.2344 198.489 50.2344C196.224 50.2344 194.497 49.6562 193.31 48.5C192.122 47.3438 191.528 45.8125 191.528 43.9062V32.8672H195.15V43.3555C195.15 44.7695 195.439 45.7617 196.017 46.332C196.595 46.9023 197.45 47.1875 198.583 47.1875C199.38 47.1875 200.025 47.0508 200.517 46.7773C201.017 46.5039 201.384 46.082 201.618 45.5117C201.853 44.9414 201.97 44.2148 201.97 43.332V32.8672H205.591ZM210.266 50V32.8672H213.899V50H210.266ZM232.906 41.2695C232.906 43.1992 232.535 44.8125 231.793 46.1094C231.059 47.3984 229.992 48.3711 228.594 49.0273C227.195 49.6758 225.512 50 223.543 50H218.692V32.8672H224.07C225.867 32.8672 227.426 33.1875 228.746 33.8281C230.067 34.4609 231.09 35.4023 231.817 36.6523C232.543 37.8945 232.906 39.4336 232.906 41.2695ZM229.133 41.3633C229.133 40.0977 228.945 39.0586 228.57 38.2461C228.203 37.4258 227.656 36.8203 226.93 36.4297C226.211 36.0391 225.32 35.8438 224.258 35.8438H222.324V47H223.883C225.656 47 226.973 46.5273 227.832 45.582C228.699 44.6367 229.133 43.2305 229.133 41.3633ZM246.804 50H236.937V32.8672H246.804V35.8438H240.57V39.6055H246.371V42.582H240.57V47H246.804V50Z" fill="white"/>
</svg>
